<svg xmlns="http://www.w3.org/2000/svg" width="100%" height="100%" viewBox="0 0 1200 450"><defs><linearGradient id="bgGrad" x1="0%" x2="100%" y1="0%" y2="100%"><stop offset="0%" stop-color="#0a0f1d"/><stop offset="50%" stop-color="#070b19"/><stop offset="100%" stop-color="#0f051d"/></linearGradient><linearGradient id="accentGrad1" x1="0%" x2="100%" y1="0%" y2="0%"><stop offset="0%" stop-color="#f36"/><stop offset="100%" stop-color="#ba26f0"/></linearGradient><linearGradient id="accentGrad2" x1="0%" x2="100%" y1="0%" y2="100%"><stop offset="0%" stop-color="#00f2fe"/><stop offset="100%" stop-color="#4facfe"/></linearGradient><filter id="glow" width="140%" height="140%" x="-20%" y="-20%"><feGaussianBlur result="blur" stdDeviation="15"/><feComposite in="SourceGraphic" in2="blur" operator="over"/></filter><filter id="subtleGlow" width="120%" height="120%" x="-10%" y="-10%"><feGaussianBlur result="blur" stdDeviation="5"/><feComposite in="SourceGraphic" in2="blur" operator="over"/></filter></defs><rect width="1200" height="450" fill="url(#bgGrad)"/><g opacity=".07"><path stroke="#fff" stroke-width="1" d="M 0,50 L 1200,50 M 0,100 L 1200,100 M 0,150 L 1200,150 M 0,200 L 1200,200 M 0,250 L 1200,250 M 0,300 L 1200,300 M 0,350 L 1200,350 M 0,400 L 1200,400"/><path stroke="#fff" stroke-width="1" d="M 100,0 L 100,450 M 200,0 L 200,450 M 300,0 L 300,450 M 400,0 L 400,450 M 500,0 L 500,450 M 600,0 L 600,450 M 700,0 L 700,450 M 800,0 L 800,450 M 900,0 L 900,450 M 1000,0 L 1000,450 M 1100,0 L 1100,450"/></g><g fill="none" stroke="url(#accentGrad2)" stroke-width="1.5" opacity=".25"><path d="M-50,225 L150,225 L200,175 L350,175 L380,205"/><circle cx="380" cy="205" r="4" fill="#00f2fe"/><path d="M1250,225 L1050,225 L1000,275 L850,275 L820,245"/><circle cx="820" cy="245" r="4" fill="#00f2fe"/></g><circle cx="200" cy="150" r="120" fill="#f36" filter="url(#glow)" opacity=".15"/><circle cx="950" cy="300" r="150" fill="#00f2fe" filter="url(#glow)" opacity=".15"/><circle cx="600" cy="225" r="180" fill="#ba26f0" filter="url(#glow)" opacity=".1"/><g transform="translate(600, 120)"><polygon fill="none" stroke="url(#accentGrad1)" stroke-width="3" points="0 -65 56 -32 56 32 0 65 -56 32 -56 -32" filter="url(#subtleGlow)"/><polygon fill="none" stroke="url(#accentGrad2)" stroke-width="1.5" points="0 -55 47 -27 47 27 0 55 -47 27 -47 -27" opacity=".6"/><path fill="url(#accentGrad1)" d="M-20,-10 C-35,-25 -30,-45 -10,-40 C-5,-38 -3,-30 -8,-25 C0,-35 15,-30 12,-15 C10,-5 0,10 -15,15 C-25,18 -30,10 -30,0 Z" opacity=".95"/><path fill="url(#accentGrad1)" d="M20,-10 C35,-25 30,-45 10,-40 C5,-38 3,-30 8,-25 C0,-35 -15,-30 -12,-15 C-10,-5 0,10 15,15 C25,18 30,10 30,0 Z" opacity=".95"/><path fill="url(#accentGrad2)" d="M-10,15 L0,35 L10,15 Z"/><circle cx="0" cy="0" r="8" fill="#fff" filter="url(#subtleGlow)"/></g><g font-family="system-ui, -apple-system, sans-serif" text-anchor="middle"><text x="600" y="240" fill="#fff" font-size="54" font-weight="900" letter-spacing="4">FASTERCLAW</text><text x="600" y="240" fill="none" stroke="url(#accentGrad1)" stroke-width="2" filter="url(#subtleGlow)" font-size="54" font-weight="900" letter-spacing="4" opacity=".8">FASTERCLAW</text><text x="600" y="278" fill="#a0aec0" font-size="18" font-weight="500" letter-spacing="2">HIGH-PERFORMANCE, PRIVACY-FIRST GO AI AGENT</text></g><g font-family="system-ui, -apple-system, sans-serif" font-size="13" font-weight="600" letter-spacing="1"><g transform="translate(225, 330) translate(0, 0)"><rect width="180" height="36" fill="#171923" stroke="#2d3748" stroke-width="1.5" rx="18"/><rect width="180" height="36" fill="none" stroke="url(#accentGrad1)" stroke-width="1.5" opacity=".3" rx="18"/><text x="90" y="22" fill="#f36" text-anchor="middle">⚡ 99% LESS MEMORY</text></g><g transform="translate(225, 330) translate(205, 0)"><rect width="170" height="36" fill="#171923" stroke="#2d3748" stroke-width="1.5" rx="18"/><rect width="170" height="36" fill="none" stroke="url(#accentGrad2)" stroke-width="1.5" opacity=".3" rx="18"/><text x="85" y="22" fill="#00f2fe" text-anchor="middle">🐹 GO-POWERED SPEED</text></g><g transform="translate(225, 330) translate(400, 0)"><rect width="180" height="36" fill="#171923" stroke="#2d3748" stroke-width="1.5" rx="18"/><rect width="180" height="36" fill="none" stroke="url(#accentGrad1)" stroke-width="1.5" opacity=".3" rx="18"/><text x="90" y="22" fill="#ba26f0" text-anchor="middle">🔒 PRIVACY-FIRST &amp; LOCAL</text></g><g transform="translate(225, 330) translate(605, 0)"><rect width="150" height="36" fill="#171923" stroke="#2d3748" stroke-width="1.5" rx="18"/><rect width="150" height="36" fill="none" stroke="url(#accentGrad2)" stroke-width="1.5" opacity=".3" rx="18"/><text x="75" y="22" fill="#4facfe" text-anchor="middle">🌍 RUNS ANYWHERE</text></g></g></svg>